<?xml version="1.0" encoding="UTF-8"?>
<svg version="1.1" xmlns="http://www.w3.org/2000/svg" width="500" height="500">
<path d="M0 0 C6.73196175 -0.84149522 6.73196175 -0.84149522 10.13671875 1.41796875 C12.15537948 3.22130567 14.07810823 5.09449963 16 7 C16.99 7.763125 17.98 8.52625 19 9.3125 C19.99 10.1478125 19.99 10.1478125 21 11 C21 11.66 21 12.32 21 13 C21.66 13 22.32 13 23 13 C23 13.66 23 14.32 23 15 C23.53625 15.226875 24.0725 15.45375 24.625 15.6875 C29.83048274 18.56421415 33.83102523 22.83102523 38 27 C40.12806574 28.83371646 42.26807562 30.650466 44.42578125 32.44921875 C44.94527344 32.96097656 45.46476562 33.47273438 46 34 C46 34.66 46 35.32 46 36 C47.485 36.495 47.485 36.495 49 37 C49 37.66 49 38.32 49 39 C49.56203125 39.25523437 50.1240625 39.51046875 50.703125 39.7734375 C55.40659397 42.28515392 61.06055643 45.94680838 62.6875 51.234375 C62.75 53.375 62.75 53.375 62 57 C58.95318939 59.03120707 58.39881676 59.24659875 54.98828125 59.1953125 C54.23095703 59.18886719 53.47363281 59.18242187 52.69335938 59.17578125 C51.90767578 59.15902344 51.12199219 59.14226562 50.3125 59.125 C49.51521484 59.11597656 48.71792969 59.10695312 47.89648438 59.09765625 C45.930861 59.07411585 43.96539225 59.03824547 42 59 C42.01110306 59.6403569 42.02220612 60.28071381 42.03364563 60.94047546 C42.14429503 67.6075546 42.2196908 74.27437278 42.2746582 80.94213867 C42.29979671 83.43020218 42.33391247 85.91819188 42.37719727 88.40600586 C42.4378743 91.98309541 42.46621734 95.55920835 42.48828125 99.13671875 C42.51408768 100.24834885 42.5398941 101.35997894 42.56648254 102.5052948 C42.5668602 103.54599625 42.56723785 104.58669769 42.56762695 105.65893555 C42.57873001 106.5716069 42.58983307 107.48427826 42.60127258 108.42460632 C41.72121088 112.19412021 40.03691631 113.66805476 37 116 C33.92675781 116.63491821 33.92675781 116.63491821 30.453125 116.64697266 C28.49584473 116.67061386 28.49584473 116.67061386 26.49902344 116.69473267 C25.08267367 116.68578261 23.66633164 116.67552755 22.25 116.6640625 C20.78938392 116.66743321 19.32877057 116.67228795 17.86816406 116.67855835 C14.81157648 116.6859179 11.75572101 116.67525528 8.69921875 116.65185547 C4.78808316 116.62336645 0.87866302 116.6397756 -3.03240967 116.66971779 C-6.04716841 116.68781667 -9.06152278 116.68202127 -12.07629395 116.66907883 C-13.51794642 116.66575188 -14.95963603 116.66980693 -16.40124512 116.68147659 C-18.41853092 116.69422403 -20.43594606 116.67133735 -22.453125 116.64697266 C-23.59942383 116.64299469 -24.74572266 116.63901672 -25.92675781 116.63491821 C-30.00979061 115.79138174 -31.49771228 114.28733113 -34 111 C-34.60127258 108.42460632 -34.60127258 108.42460632 -34.56762695 105.65893555 C-34.5672493 104.6182341 -34.56687164 103.57753265 -34.56648254 102.5052948 C-34.54067612 101.3936647 -34.51486969 100.28203461 -34.48828125 99.13671875 C-34.48120651 97.98959915 -34.47413177 96.84247955 -34.46684265 95.66059875 C-34.43888813 92.00223162 -34.37614286 88.34540337 -34.3125 84.6875 C-34.28741872 82.20510025 -34.26460526 79.72267648 -34.24414062 77.24023438 C-34.18905778 71.15963254 -34.10541898 65.07992622 -34 59 C-35.19238281 59.02320313 -36.38476562 59.04640625 -37.61328125 59.0703125 C-39.17968124 59.08907178 -40.746088 59.10727181 -42.3125 59.125 C-43.09818359 59.14175781 -43.88386719 59.15851563 -44.69335938 59.17578125 C-45.8293457 59.18544922 -45.8293457 59.18544922 -46.98828125 59.1953125 C-48.03302612 59.21102295 -48.03302612 59.21102295 -49.09887695 59.22705078 C-51 59 -51 59 -54 57 C-54.6875 54.375 -54.6875 54.375 -54 51 C-51.62144951 48.00119257 -49.00236059 45.37536159 -46 43 C-45.34 43 -44.68 43 -44 43 C-44 42.34 -44 41.68 -44 41 C-43.34 41 -42.68 41 -42 41 C-42 40.34 -42 39.68 -42 39 C-40.390625 37.4140625 -40.390625 37.4140625 -38.25 35.625 C-35.93096298 33.66242273 -33.74780716 31.7411705 -31.625 29.5625 C-30 28 -30 28 -28 28 C-28 27.34 -28 26.68 -28 26 C-27.34 26 -26.68 26 -26 26 C-26 25.34 -26 24.68 -26 24 C-24.6015625 22.58984375 -24.6015625 22.58984375 -22.625 20.9375 C-19.34758738 18.15314946 -16.12371422 15.32607399 -12.9375 12.4375 C-9.97737055 9.76059281 -6.99310601 7.12970997 -3.9375 4.5625 C-1.00970985 2.33611003 -1.00970985 2.33611003 0 0 Z M3 58 C3 58.66 3 59.32 3 60 C2.443125 60.061875 1.88625 60.12375 1.3125 60.1875 C-1.956767 61.33616138 -3.67659558 63.48821144 -6 66 C-6.33 66.33 -6.66 66.66 -7 67 C-7.46935564 70.37936063 -7.14899093 71.76271815 -5.3125 74.6875 C-2.93078794 77.06921206 -1.18961572 78.0253952 2 79 C2.33 81.64 2.66 84.28 3 87 C2.0925 86.46375 1.185 85.9275 0.25 85.375 C-2.82880601 83.64661496 -2.82880601 83.64661496 -5.375 84.8125 C-5.91125 85.204375 -6.4475 85.59625 -7 86 C-7 86.99 -7 87.98 -7 89 C-5.71086513 89.67154933 -4.41859796 90.33708859 -3.125 91 C-2.40570313 91.37125 -1.68640625 91.7425 -0.9453125 92.125 C0.94848977 93.13673746 0.94848977 93.13673746 3 93 C3 93.99 3 94.98 3 96 C3.99 96.33 4.98 96.66 6 97 C6.33 95.68 6.66 94.36 7 93 C8.0828125 92.9071875 8.0828125 92.9071875 9.1875 92.8125 C13.05749882 91.69450034 14.59906707 90.22410993 17 87 C17.76198864 83.92766179 17.51829423 82.26525364 17 79 C14.70354707 76.57596635 12.87925047 75.31750711 9.75 74.1875 C8 73 8 73 7.25 69.375 C7.1675 68.26125 7.085 67.1475 7 66 C9.31 66.33 11.62 66.66 14 67 C14.66 65.68 15.32 64.36 16 63 C11.7362719 60.64089647 11.7362719 60.64089647 7 60 C7 59.34 7 58.68 7 58 C5.68 58 4.36 58 3 58 Z " fill="#2C1D14" transform="translate(244,151)"/>
<path d="M0 0 C2.875 0.6875 2.875 0.6875 6 2 C10.75675582 11.47639782 10.36405411 23.16708137 10.375 33.5 C10.39949219 34.7478125 10.42398438 35.995625 10.44921875 37.28125 C10.45501953 39.075625 10.45501953 39.075625 10.4609375 40.90625 C10.46915527 41.98197266 10.47737305 43.05769531 10.48583984 44.16601562 C9.88373169 47.67821236 8.78116906 48.84132858 6 51 C3.4375 51.5625 3.4375 51.5625 1 51 C-1.72945057 47.36440283 -2.36514393 44.76063808 -2.29296875 40.26171875 C-2.28330078 39.19501953 -2.27363281 38.12832031 -2.26367188 37.02929688 C-2.23853516 35.92650391 -2.21339844 34.82371094 -2.1875 33.6875 C-2.16719727 32.00430664 -2.16719727 32.00430664 -2.14648438 30.28710938 C-2.1112138 27.52424771 -2.06192235 24.76237171 -2 22 C-2.639375 23.134375 -3.27875 24.26875 -3.9375 25.4375 C-5.875 28.875 -5.875 28.875 -7 30 C-9.33297433 30.04092937 -11.66705225 30.04241723 -14 30 C-17.875 23.25 -17.875 23.25 -19 21 C-18.98952637 21.60473145 -18.97905273 22.20946289 -18.96826172 22.83251953 C-18.92645332 25.5966367 -18.90059549 28.36068708 -18.875 31.125 C-18.84986328 32.55199219 -18.84986328 32.55199219 -18.82421875 34.0078125 C-18.78908592 39.0669394 -18.91280565 43.28448684 -21 48 C-22 49 -22 49 -24.9375 49.1875 C-28 49 -28 49 -30 47 C-30.25878906 44.39306641 -30.25878906 44.39306641 -30.265625 41.1015625 C-30.26820313 39.89886719 -30.27078125 38.69617188 -30.2734375 37.45703125 C-30.26183594 35.56017578 -30.26183594 35.56017578 -30.25 33.625 C-30.25773437 32.39910156 -30.26546875 31.17320312 -30.2734375 29.91015625 C-30.22937965 9.1368823 -30.22937965 9.1368823 -25 2 C-21.5851067 1.34608426 -19.84859979 1.4342668 -16.9375 3.375 C-14.046672 7.29160568 -12.0500189 11.5975004 -10 16 C-9.69707031 15.26394531 -9.39414062 14.52789062 -9.08203125 13.76953125 C-6.69201115 8.2026229 -4.69436391 3.88961581 0 0 Z " fill="#110E0D" transform="translate(306,298)"/>
<path d="M0 0 C5.33195842 -0.20691182 9.16831904 0.00097113 13.6796875 3.1484375 C22.26478736 11.92865327 21.75623136 22.54646611 21.91015625 34.1328125 C21.6567769 37.44821682 21.11913672 40.70898828 18.6796875 43.1484375 C16.3046875 43.3984375 16.3046875 43.3984375 13.6796875 43.1484375 C11.8671875 41.6484375 11.8671875 41.6484375 10.6796875 40.1484375 C9.97714844 40.63570313 9.27460938 41.12296875 8.55078125 41.625 C2.87518673 44.63653995 -3.86763068 43.8799391 -9.8828125 42.0859375 C-13.06442408 39.55696419 -14.52852463 37.06967265 -15.3203125 33.1484375 C-15.60339115 28.1388032 -15.08588249 25.09067749 -11.8828125 21.1484375 C-7.78944454 17.95361372 -4.85196261 17.99522264 0.1796875 18.0234375 C0.86933594 18.01957031 1.55898438 18.01570313 2.26953125 18.01171875 C7.42635457 18.02177104 7.42635457 18.02177104 9.6796875 19.1484375 C8.83614814 16.47722951 8.22157625 14.60695875 6.0546875 12.7734375 C1.95352976 11.69418546 -2.51138978 12.24397614 -6.3203125 14.1484375 C-9.3203125 14.3359375 -9.3203125 14.3359375 -12.3203125 14.1484375 C-14.3203125 12.1484375 -14.3203125 12.1484375 -14.8828125 9.8984375 C-13.98821683 5.52485866 -10.93255625 3.54135846 -7.3203125 1.1484375 C-4.79539871 0.19306471 -2.67315387 0.17100984 0 0 Z M-5.3203125 29.1484375 C-4.10023306 31.8389903 -4.10023306 31.8389903 -2.3203125 34.1484375 C-0.32040734 34.34833513 -0.32040734 34.34833513 1.9921875 34.3359375 C2.77207031 34.35011719 3.55195313 34.36429687 4.35546875 34.37890625 C6.8829543 34.12828163 8.49686781 33.41217522 10.6796875 32.1484375 C10.49139978 29.70363671 10.49139978 29.70363671 9.6796875 27.1484375 C4.32346081 22.98248341 -0.81612287 24.9092002 -5.3203125 29.1484375 Z " fill="#13100F" transform="translate(336.3203125,305.8515625)"/>
<path d="M0 0 C2.375 1.4375 2.375 1.4375 4 3 C4 3.66 4 4.32 4 5 C4.66 5 5.32 5 6 5 C11.54669609 17.31366533 15.28298781 31.40032917 14 45 C12.8125 48.125 12.8125 48.125 11 50 C8.5 50.5 8.5 50.5 6 50 C1.48694466 46.6458527 1.79606114 41.20501515 1 36 C-3.29 35.67 -7.58 35.34 -12 35 C-12.0825 36.36125 -12.165 37.7225 -12.25 39.125 C-12.76401016 43.64400603 -13.84515368 46.58224982 -17 50 C-19.625 50.5625 -19.625 50.5625 -22 50 C-26.06198568 43.90702149 -24.16305578 35.99288309 -22.8125 29.125 C-20.47432048 19.16042186 -17.55274853 8.35958361 -10 1 C-6.31382119 -1.25066103 -4.18890842 -1.13449603 0 0 Z M-5 9 C-8.19028781 12.3896808 -9.95933942 15.45893564 -11 20 C-10.86850174 22.75124253 -10.86850174 22.75124253 -10 25 C-6.98131566 26.50934217 -4.32702771 26.17510672 -1 26 C-0.01 25.34 0.98 24.68 2 24 C1.72706899 17.8590522 1.02720165 13.75942013 -3 9 C-3.66 9 -4.32 9 -5 9 Z " fill="#120F0D" transform="translate(90,299)"/>
<path d="M0 0 C0.66 0.33 1.32 0.66 2 1 C2.41733821 7.05140408 2.10415132 10.17158669 -2 15 C-2.66 15 -3.32 15 -4 15 C-4 15.66 -4 16.32 -4 17 C-6.31 18.32 -8.62 19.64 -11 21 C-9.9275 21.721875 -8.855 22.44375 -7.75 23.1875 C-3.16927758 26.50713285 -0.05961348 29.38372556 0.9375 35.125 C1 39 1 39 -0.0625 41.0625 C-3.09887115 42.53171184 -4.82485984 42.01604485 -8 41 C-11.87933685 37.84240024 -14.0613539 34.59153023 -16 30 C-16 29.34 -16 28.68 -16 28 C-18.28230854 28.88805006 -18.28230854 28.88805006 -19.3125 31.6875 C-21.50405255 35.98943648 -23.95071111 39.59111389 -28 42.375 C-30.51555723 43.16111164 -32.3800097 43.33589619 -35 43 C-36.875 41.9375 -36.875 41.9375 -38 40 C-38.10733519 34.41857015 -36.28751335 31.42955154 -32.625 27.51171875 C-30.04947682 25.11573926 -27.61574401 23 -24 23 C-24 22.34 -24 21.68 -24 21 C-25.299375 20.690625 -25.299375 20.690625 -26.625 20.375 C-31.47224202 18.4001977 -34.43583674 15.27514655 -37.375 11 C-38.24061396 8.23003533 -38.25044116 5.88007335 -38 3 C-36 1 -36 1 -32.1875 0.5625 C-28.65610141 0.63926953 -28.0923549 0.92406375 -25.1875 3.3125 C-24.465625 4.199375 -23.74375 5.08625 -23 6 C-22.1646875 6.7425 -22.1646875 6.7425 -21.3125 7.5 C-19.58794114 9.47092441 -18.86163591 11.54765165 -18 14 C-16.48393802 11.98760821 -14.97829599 9.97004395 -13.5 7.9296875 C-13.005 7.25164062 -12.51 6.57359375 -12 5.875 C-11.505 5.19179688 -11.01 4.50859375 -10.5 3.8046875 C-7.29973782 -0.04562793 -4.77087534 -0.30452396 0 0 Z " fill="#171312" transform="translate(269,306)"/>
<path d="M0 0 C2.59916265 2.06551814 3.75692427 3.82936655 4.8046875 6.97265625 C5.17086401 12.55684798 5.0593616 16.19913423 1.8046875 20.97265625 C-3.67740597 26.45474972 -10.80618822 25.77021449 -18.1953125 25.97265625 C-18.1953125 26.63265625 -18.1953125 27.29265625 -18.1953125 27.97265625 C-11.71413703 30.09376822 -7.68743645 29.77269062 -1.1953125 27.97265625 C4.51897321 26.82979911 4.51897321 26.82979911 6.8046875 27.97265625 C7.32631092 33.18889045 7.32631092 33.18889045 6.8046875 35.97265625 C0.57318516 41.49603332 -5.71666937 41.26221736 -13.703125 41.1875 C-19.38625128 40.83786695 -23.33126879 39.7385924 -27.5703125 35.72265625 C-31.25979026 29.47892465 -32.34601923 22.67794334 -30.625 15.640625 C-28.69768454 9.52393437 -26.87996385 4.80798866 -21.3828125 1.16015625 C-15.0876136 -2.09064318 -6.55551739 -3.0677955 0 0 Z M-18.1953125 9.97265625 C-20.48131278 12.6759793 -20.48131278 12.6759793 -19.8828125 15.09765625 C-19.34952764 16.95859478 -19.34952764 16.95859478 -18.1953125 17.97265625 C-15.14135466 18.41434437 -12.24384427 18.45917915 -9.1953125 17.97265625 C-6.12806793 15.66009621 -6.12806793 15.66009621 -4.1953125 12.97265625 C-4.74239977 10.4352131 -4.74239977 10.4352131 -6.1953125 7.97265625 C-11.06588043 6.20154064 -13.92486923 7.25510144 -18.1953125 9.97265625 Z " fill="#171312" transform="translate(426.1953125,308.02734375)"/>
<path d="M0 0 C2.19921875 1.65625 2.19921875 1.65625 4.19921875 4.65625 C4.83700363 9.30872288 5.28517432 14.38482899 3.21875 18.70703125 C-1.05771566 24.00984867 -5.54099761 24.93738916 -12.05078125 25.78125 C-13.94570312 26.03261719 -13.94570312 26.03261719 -15.87890625 26.2890625 C-16.843125 26.41023438 -17.80734375 26.53140625 -18.80078125 26.65625 C-18.80078125 27.31625 -18.80078125 27.97625 -18.80078125 28.65625 C-12.20139766 29.84630278 -7.73070814 29.40441234 -1.37890625 27.25 C1.5302012 26.58002374 3.35478418 26.82082166 6.19921875 27.65625 C7.19921875 28.65625 7.19921875 28.65625 7.38671875 31.53125 C7.19921875 34.65625 7.19921875 34.65625 5.19921875 37.65625 C-2.06945579 41.69809877 -11.25634942 41.72419835 -19.234375 40.1875 C-23.11649992 38.95461345 -26.44214711 37.02252112 -28.8984375 33.72265625 C-31.67762671 27.35819264 -31.61164802 18.25297893 -29.80078125 11.65625 C-27.46490254 6.42833097 -24.34363095 2.33980632 -19.31640625 -0.5 C-13.27923779 -2.5248888 -5.78369728 -2.77488405 0 0 Z M-18.80078125 9.65625 C-19.86237545 13.24488524 -19.86237545 13.24488524 -19.80078125 16.65625 C-16.60339463 18.25494331 -13.27061425 18.16710495 -9.80078125 17.65625 C-6.83346727 15.81968011 -6.83346727 15.81968011 -4.80078125 13.65625 C-5.07112759 11.21907742 -5.07112759 11.21907742 -5.80078125 8.65625 C-10.69750722 5.39176602 -13.88971016 6.83693141 -18.80078125 9.65625 Z " fill="#141110" transform="translate(221.80078125,308.34375)"/>
<path d="M0 0 C0.66 0.99 1.32 1.98 2 3 C2.433125 2.525625 2.86625 2.05125 3.3125 1.5625 C6.40017998 -1.29646295 9.8575344 -1.34130244 13.93359375 -1.28125 C17.3946086 -0.8101856 19.42389628 0.73057529 22 3 C26.67586969 12.74275287 25.79483312 26.09112183 23.14453125 36.29296875 C22 39 22 39 19 41 C14.45945946 40.45945946 14.45945946 40.45945946 13 39 C12.94913519 37.10745245 12.96456794 35.2130495 13.0078125 33.3203125 C13.02457031 32.16402344 13.04132813 31.00773437 13.05859375 29.81640625 C13.10272685 27.36312534 13.15476104 24.90997336 13.21484375 22.45703125 C13.22902344 21.29816406 13.24320313 20.13929688 13.2578125 18.9453125 C13.2798877 17.87812988 13.30196289 16.81094727 13.32470703 15.71142578 C13.22211225 12.98562033 13.22211225 12.98562033 11.64013672 11.13232422 C9.98907388 9.77150304 9.98907388 9.77150304 7.5 9.9375 C4.81581309 10.81003488 4.81581309 10.81003488 3.41015625 13.36328125 C1.49686025 18.29757093 1.26218742 23.00031714 0.9375 28.25 C0.80898893 30.23492344 0.67265979 32.21936105 0.52734375 34.203125 C0.47312256 35.07614258 0.41890137 35.94916016 0.36303711 36.84863281 C0 39 0 39 -2 41 C-5 41.25 -5 41.25 -8 41 C-10.85797919 38.14202081 -10.95980722 35.4517519 -11.06933594 31.49560547 C-10.97642717 28.62130716 -10.87156022 25.7482416 -10.75 22.875 C-10.72292969 21.89273437 -10.69585937 20.91046875 -10.66796875 19.8984375 C-10.38871105 13.0521197 -9.53740445 6.41557943 -7 0 C-4.27584084 -1.36207958 -2.87220643 -0.86166193 0 0 Z " fill="#110E0D" transform="translate(161,307)"/>
<path d="M0 0 C2.5 0.1875 2.5 0.1875 5 1 C5.66 1.99 6.32 2.98 7 4 C7.433125 3.525625 7.86625 3.05125 8.3125 2.5625 C11.44525659 -0.33820054 14.87928357 -0.27568017 19 -0.22265625 C21.91723773 0.10211436 23.72451303 1.19299564 26 3 C31.87441559 11.81162338 30.76303237 23.04712365 29.25 33.125 C28.58030851 36.30018062 27.99853325 38.00222541 26.1875 40.75 C24 42 24 42 21.3125 41.8125 C19 41 19 41 18 40 C17.9247621 38.18112373 17.91685696 36.35937717 17.9375 34.5390625 C17.94523437 33.42789063 17.95296875 32.31671875 17.9609375 31.171875 C17.98689314 28.81510322 18.01293423 26.45833237 18.0390625 24.1015625 C18.04679687 22.9878125 18.05453125 21.8740625 18.0625 20.7265625 C18.07410156 19.70127441 18.08570313 18.67598633 18.09765625 17.61962891 C18.11852853 14.88780696 18.11852853 14.88780696 17 12 C14.03 11.505 14.03 11.505 11 11 C6.65953816 16.23789332 6.4423767 20.39605611 6.4375 27.0625 C6.38335166 37.68330995 6.38335166 37.68330995 3 42 C0.69 41.67 -1.62 41.34 -4 41 C-5.98500777 32.76985241 -6.06077199 25.37386775 -5.25 17 C-5.16379395 16.0922583 -5.07758789 15.1845166 -4.98876953 14.24926758 C-3.85767206 3.85767206 -3.85767206 3.85767206 0 0 Z " fill="#120F0D" transform="translate(114,306)"/>
<path d="M0 0 C1 1 1 1 1.125 4.4375 C1 8 1 8 0 10 C3.63 10 7.26 10 11 10 C13 15 13 15 12.375 17.1875 C10.69846316 19.39748039 9.63442431 20.12185856 7 21 C3.75 21.125 3.75 21.125 1 21 C1.0721875 21.6084375 1.144375 22.216875 1.21875 22.84375 C1.83936153 28.70508116 2.15846395 34.54688607 2.25 40.4375 C2.27126953 41.12328125 2.29253906 41.8090625 2.31445312 42.515625 C2.33573387 45.59829319 2.15882433 47.70851065 0.671875 50.4375 C-1 52 -1 52 -4 52.5625 C-7 52 -7 52 -8.671875 50.015625 C-10.45549142 45.96576653 -10.36548544 42.55790197 -10.25 38.1875 C-10.24484375 37.41857422 -10.2396875 36.64964844 -10.234375 35.85742188 C-10.16658947 30.83705641 -9.70274302 25.97020667 -9 21 C-10.04800781 21.03480469 -10.04800781 21.03480469 -11.1171875 21.0703125 C-12.02726562 21.08835937 -12.93734375 21.10640625 -13.875 21.125 C-14.77992188 21.14820313 -15.68484375 21.17140625 -16.6171875 21.1953125 C-19 21 -19 21 -21 19 C-21.55845388 13.75053355 -21.55845388 13.75053355 -19.7734375 11.3515625 C-17.55754545 9.66279895 -16.07107468 9.51239672 -13.3125 9.3125 C-12.10013672 9.21388672 -12.10013672 9.21388672 -10.86328125 9.11328125 C-10.24839844 9.07589844 -9.63351562 9.03851563 -9 9 C-8.87882812 8.36191406 -8.75765625 7.72382813 -8.6328125 7.06640625 C-8.38144531 5.82697266 -8.38144531 5.82697266 -8.125 4.5625 C-7.96257812 3.73878906 -7.80015625 2.91507812 -7.6328125 2.06640625 C-7.42398437 1.38449219 -7.21515625 0.70257813 -7 0 C-4.31633121 -1.3418344 -2.84719317 -0.73004953 0 0 Z " fill="#100D0C" transform="translate(381,297)"/>
<path d="M0 0 C0.66 0.33 1.32 0.66 2 1 C1.43293005 4.1188847 0.94200774 6.33953615 -1.73828125 8.21875 C-3.79746173 9.24252335 -5.86344266 10.1502793 -8 11 C-9.485 11.61875 -9.485 11.61875 -11 12.25 C-11.66 12.4975 -12.32 12.745 -13 13 C-12.07038578 11.84775972 -11.1309875 10.70340824 -10.1875 9.5625 C-9.66542969 8.92441406 -9.14335937 8.28632813 -8.60546875 7.62890625 C-7 6 -7 6 -4 5 C-4 4.34 -4 3.68 -4 3 C-3.34 3 -2.68 3 -2 3 C-2 2.34 -2 1.68 -2 1 C-1.34 0.67 -0.68 0.34 0 0 Z " fill="#3B2A21" transform="translate(204,189)"/>
<path d="M0 0 C0.66 0 1.32 0 2 0 C1.45276317 3.37462715 0.9451 5.08235 -1 8 C-4.125 8.1875 -4.125 8.1875 -7 8 C-6.02133662 6.85373678 -5.04205413 5.70800212 -4.0625 4.5625 C-3.51722656 3.92441406 -2.97195312 3.28632813 -2.41015625 2.62890625 C-1.63204305 1.73008851 -0.84063472 0.84063472 0 0 Z " fill="#413026" transform="translate(212,181)"/>
<path d="M0 0 C0.33 0.66 0.66 1.32 1 2 C-1.90600261 3.25664978 -3.79604584 4 -7 4 C-8.68798827 5.43750191 -8.68798827 5.43750191 -10 7 C-10.33 5.68 -10.66 4.36 -11 3 C-9.73581754 2.30034557 -8.46334598 1.61565237 -7.1875 0.9375 C-6.47980469 0.55464844 -5.77210938 0.17179688 -5.04296875 -0.22265625 C-3 -1 -3 -1 0 0 Z " fill="#3C2C24" transform="translate(262,241)"/>
<path d="M0 0 C1.21236328 0.04060547 1.21236328 0.04060547 2.44921875 0.08203125 C3.06410156 0.11683594 3.67898438 0.15164063 4.3125 0.1875 C4.3125 0.5175 4.3125 0.8475 4.3125 1.1875 C3.219375 1.290625 2.12625 1.39375 1 1.5 C-3.13474636 2.23392044 -3.13474636 2.23392044 -5.6875 5.1875 C-6.86324711 7.28739652 -6.86324711 7.28739652 -7.6875 9.1875 C-8.05369718 3.69454225 -8.05369718 3.69454225 -6.46875 1.5 C-4.16706546 -0.19597808 -2.82643251 -0.12288837 0 0 Z " fill="#473D38" transform="translate(367.6875,306.8125)"/>
<path d="M0 0 C1.485 0.99 1.485 0.99 3 2 C2.67 3.65 2.34 5.3 2 7 C1.01 7 0.02 7 -1 7 C-1.04254356 5.00045254 -1.04080783 2.99958364 -1 1 C-0.67 0.67 -0.34 0.34 0 0 Z " fill="#5D493F" transform="translate(252,231)"/>
<path d="M0 0 C4.875 2.625 4.875 2.625 6 6 C5.34 6.66 4.68 7.32 4 8 C3.67 7.01 3.34 6.02 3 5 C2.01 4.67 1.02 4.34 0 4 C0 2.68 0 1.36 0 0 Z " fill="#422C23" transform="translate(272,170)"/>
<path d="M0 0 C1.485 0.99 1.485 0.99 3 2 C2.6875 3.9375 2.6875 3.9375 2 6 C1.01 6.33 0.02 6.66 -1 7 C-1.04254356 5.00045254 -1.04080783 2.99958364 -1 1 C-0.67 0.67 -0.34 0.34 0 0 Z " fill="#37271E" transform="translate(282,259)"/>
<path d="M0 0 C1.32 1.32 2.64 2.64 4 4 C3.67 4.66 3.34 5.32 3 6 C0 5 0 5 -1.1875 2.9375 C-1.5896875 1.9784375 -1.5896875 1.9784375 -2 1 C-1.34 0.67 -0.68 0.34 0 0 Z " fill="#4F3F37" transform="translate(236,222)"/>
<path d="M0 0 C0.33 0 0.66 0 1 0 C1 2.64 1 5.28 1 8 C0.01 7.34 -0.98 6.68 -2 6 C-1.125 1.125 -1.125 1.125 0 0 Z " fill="#675445" transform="translate(246,216)"/>
</svg>
