<?xml version="1.0" encoding="UTF-8"?>
<svg version="1.1" xmlns="http://www.w3.org/2000/svg" width="2000" height="2000">
<path d="M0 0 C660 0 1320 0 2000 0 C2000 660 2000 1320 2000 2000 C1340 2000 680 2000 0 2000 C0 1340 0 680 0 0 Z " fill="#DCC6BA" transform="translate(0,0)"/>
<path d="M0 0 C3.5109078 2.55635931 6.44013922 5.64123191 9.41015625 8.796875 C12.16193232 11.59264749 15.04430542 14.13644006 18.00976562 16.69995117 C21.36938228 19.64040144 24.60374423 22.71051874 27.84765625 25.77734375 C34.54717765 32.08442456 41.30069667 38.32546681 48.09765625 44.52734375 C50.0773756 46.33924583 52.05670474 48.1515589 54.03515625 49.96484375 C54.52862549 50.41706299 55.02209473 50.86928223 55.53051758 51.33520508 C61.95073984 57.22205824 68.34566382 63.13633354 74.74316406 69.04785156 C80.51890309 74.3843187 86.29815167 79.71670093 92.09765625 85.02734375 C97.89868889 90.33938583 103.67934742 95.67328709 109.45654297 101.01123047 C112.1694321 103.51748479 114.88358917 106.0223652 117.59765625 108.52734375 C120.8600131 111.53837247 124.12209217 114.54969901 127.3828125 117.5625 C132.6124075 122.39364967 137.84690003 127.21919325 143.09765625 132.02734375 C149.99872602 138.34669674 156.87068755 144.69743855 163.74316406 151.04785156 C169.51890309 156.3843187 175.29815167 161.71670093 181.09765625 167.02734375 C186.33956786 171.82739518 191.56564339 176.64435841 196.78515625 181.46875 C199.05235203 183.56388182 201.32361348 185.6544899 203.59765625 187.7421875 C204.17330322 188.27142822 204.7489502 188.80066895 205.34204102 189.34594727 C206.43012243 190.3461663 207.51907983 191.3454337 208.60913086 192.34350586 C210.1145395 193.72865638 211.6093723 195.12381402 213.09765625 196.52734375 C213.6508252 197.04844727 214.20399414 197.56955078 214.77392578 198.10644531 C218.6038158 201.80749414 220.22724845 204.28551759 220.41015625 209.58984375 C220.30863504 215.82324608 218.60989346 221.70034828 214.4140625 226.421875 C209.30851139 230.9345234 205.50383655 232.78080245 198.58496094 232.75439453 C197.94064117 232.75468658 197.29632141 232.75497864 196.63247681 232.75527954 C194.51135604 232.75389069 192.39059035 232.73835091 190.26953125 232.72265625 C188.79551383 232.71892453 187.32149393 232.71607831 185.84747314 232.71408081 C181.97421378 232.70645686 178.1011052 232.6868191 174.22790527 232.66467285 C170.27305135 232.64418769 166.31817298 232.63507339 162.36328125 232.625 C154.60800429 232.60357196 146.85285143 232.56945107 139.09765625 232.52734375 C139.10134342 233.52549197 139.10503059 234.52364019 139.1088295 235.55203533 C139.19775192 259.87447629 139.26341814 284.19689609 139.30490494 308.51946545 C139.32550252 320.28183468 139.3535695 332.04409632 139.39941406 343.80639648 C139.43936768 354.06217645 139.46510943 364.31787847 139.47401023 374.5737341 C139.47921053 380.00073831 139.49137461 385.42751959 139.52057648 390.85445213 C139.54788032 395.97047082 139.55607114 401.08617634 139.55008698 406.20226097 C139.55118055 408.07222195 139.55904469 409.94219422 139.57447815 411.81209183 C139.69530351 427.21664064 138.37630945 439.80875441 127.28515625 451.42578125 C120.73097066 457.68925699 112.05683422 461.63878106 102.90363979 461.66156483 C101.65307172 461.66825159 101.65307172 461.66825159 100.37723964 461.67507344 C99.0110667 461.6747969 99.0110667 461.6747969 97.61729431 461.67451477 C96.64566882 461.67819146 95.67404333 461.68186815 94.67297465 461.68565625 C91.40819848 461.69669352 88.14345414 461.70053704 84.87866211 461.7043457 C82.54126891 461.71061037 80.20387671 461.71725718 77.8664856 461.72425842 C70.18183079 461.74530264 62.49717578 461.75566187 54.8125 461.765625 C52.16665702 461.76967257 49.52081415 461.77378949 46.87497139 461.77797508 C35.86794206 461.79498645 24.86091371 461.80947903 13.85387325 461.81672382 C10.99869218 461.8186336 8.14351112 461.82055395 5.28833008 461.82250977 C4.57872057 461.82299351 3.86911106 461.82347725 3.13799823 461.82397565 C-8.34861698 461.83227001 -19.83512785 461.85759727 -31.32169754 461.89009044 C-43.1248589 461.92320588 -54.92796732 461.94117668 -66.73117536 461.94436806 C-73.35409178 461.94652917 -79.97687349 461.95566513 -86.59974861 461.98082924 C-92.83370864 462.00413259 -99.06739547 462.00833384 -105.30138779 461.99806786 C-107.5849988 461.99757292 -109.86862336 462.00388065 -112.15219307 462.0176239 C-128.12003028 462.10831844 -140.57037957 461.49972681 -152.5859375 449.90234375 C-159.67388768 442.26644729 -162.06153024 433.68478168 -162.02259827 423.49151611 C-162.02345269 422.67547149 -162.02430712 421.85942688 -162.02518743 421.01865363 C-162.02683612 418.28096819 -162.02133083 415.54334387 -162.01586914 412.80566406 C-162.01558711 410.84450787 -162.01574531 408.88335157 -162.01631165 406.92219543 C-162.016599 401.59408061 -162.01071216 396.26598821 -162.00373769 390.93787861 C-161.99749397 385.3711642 -161.99689954 379.8044493 -161.99571228 374.23773193 C-161.99260198 363.69452671 -161.98439263 353.15133183 -161.97436279 342.60813117 C-161.96319233 330.60584978 -161.95768885 318.60356789 -161.95266736 306.6012826 C-161.94220978 281.90996391 -161.92461614 257.21865441 -161.90234375 232.52734375 C-162.72618057 232.5362262 -163.5500174 232.54510864 -164.39881897 232.55426025 C-172.18144584 232.63457265 -179.96387038 232.69539227 -187.74680424 232.73459244 C-191.74764315 232.75542358 -195.74813823 232.78365834 -199.7487793 232.82910156 C-203.6132232 232.87272055 -207.47733741 232.89651448 -211.34200859 232.90685272 C-212.81276066 232.91421547 -214.28349568 232.92859325 -215.75410652 232.95026398 C-230.06444959 233.15265831 -230.06444959 233.15265831 -235.90234375 228.52734375 C-241.44186701 222.6883868 -242.37926462 217.22724329 -242.20703125 209.390625 C-241.30818535 200.94377827 -232.24012858 194.54394444 -226.15234375 189.2578125 C-221.88065642 185.53866941 -217.75985327 181.67601295 -213.65234375 177.77734375 C-207.78813756 172.23390595 -201.88721576 166.73956945 -195.92578125 161.30078125 C-192.39282395 158.06990714 -188.89849438 154.79793628 -185.40234375 151.52734375 C-179.91432125 146.39482069 -174.39639091 141.2976005 -168.8515625 136.2265625 C-160.32677875 128.42440943 -151.86012367 120.56087875 -143.41870117 112.66870117 C-138.63943416 108.20464538 -133.82341774 103.78316406 -128.99609375 99.37109375 C-125.4425691 96.11369615 -121.92288946 92.82029863 -118.40234375 89.52734375 C-112.96423339 84.440788 -107.49247663 79.3946695 -101.99609375 74.37109375 C-98.44256872 71.11369581 -94.92291841 67.82026821 -91.40234375 64.52734375 C-85.91427608 59.39486841 -80.39639151 54.29760104 -74.8515625 49.2265625 C-66.97356753 42.01637107 -59.1412399 34.7577986 -51.33984375 27.46484375 C-45.81580685 22.30229802 -40.27585157 17.15896646 -34.68359375 12.0703125 C-32.83551707 10.38056823 -31.00194776 8.67481364 -29.18359375 6.953125 C-20.61148846 -1.06385901 -11.36140154 -6.34702551 0 0 Z " fill="#2A1B12" transform="translate(1004.90234375,605.47265625)"/>
<path d="M0 0 C0.74693115 0.00572021 1.4938623 0.01144043 2.26342773 0.01733398 C8.68961466 0.22422586 13.42066847 1.71446484 18.6875 5.5 C19.368125 5.97308594 20.04875 6.44617187 20.75 6.93359375 C36.74572039 19.46149194 44.37116878 41.98045605 50.6875 60.5 C50.94241211 61.23492676 51.19732422 61.96985352 51.45996094 62.72705078 C58.2770533 82.54448898 63.5069682 103.33694663 66.35522461 124.10961914 C66.61611803 125.98647988 66.90046551 127.8600822 67.19360352 129.73217773 C68.53172082 138.74169116 69.03052151 147.51199444 69.00317383 156.60864258 C68.99997657 158.82877171 69.02373133 161.04760857 69.04882812 163.26757812 C69.09482434 173.64633272 68.44550318 183.10369302 61.6875 191.5 C56.75586296 195.83386285 51.97234641 195.8461262 45.63671875 195.77734375 C41.6319559 195.40073691 39.59251557 194.25976479 36.6875 191.5 C33.13323846 186.83546816 31.46904656 182.45336669 30 176.875 C29.78577393 176.07231689 29.57154785 175.26963379 29.35083008 174.44262695 C25.97361448 161.29169394 26.56431974 147.9853963 26.6875 134.5 C26.0805127 134.71293701 25.47352539 134.92587402 24.84814453 135.14526367 C16.42759841 137.79634855 8.29510257 137.92610447 -0.4375 137.8125 C-1.90877171 137.80385206 -3.38004453 137.79538944 -4.85131836 137.78710938 C-14.76788223 137.69663392 -24.52337521 137.17386561 -34.3125 135.5 C-34.39886719 136.3765625 -34.48523438 137.253125 -34.57421875 138.15625 C-35.53078056 146.79163368 -36.92212977 155.29218779 -38.625 163.8125 C-38.81344482 164.80121094 -39.00188965 165.78992187 -39.19604492 166.80859375 C-41.21453917 176.58733051 -44.58555397 186.72163047 -52.3125 193.5 C-57.36565945 196.77294354 -63.54607665 196.19570033 -69.3125 195.5 C-73.13783165 193.82461979 -74.95166928 191.08479462 -77.125 187.5625 C-82.87903664 172.72314235 -79.33571383 153.65918093 -76.3125 138.5 C-76.10850586 137.45424805 -75.90451172 136.40849609 -75.69433594 135.33105469 C-55.0150482 30.48977494 -55.0150482 30.48977494 -19.6875 6 C-13.29451976 1.98295495 -7.50113349 -0.06698198 0 0 Z " fill="#010101" transform="translate(344.3125,1196.5)"/>
<path d="M0 0 C9.04552766 5.21857365 12.39898622 15.34792382 15.25 24.875 C25.55009887 64.66693499 26.34941365 107.38193897 26.5 148.25 C26.50535767 149.06642975 26.51071533 149.8828595 26.51623535 150.72402954 C26.65605759 178.51722941 26.65605759 178.51722941 17.578125 188.76171875 C12.41818117 193.47644619 7.17582876 195.34700303 0.19921875 195.12109375 C-4.33683983 194.54840499 -7.12497641 192.44188186 -10.4375 189.4375 C-16.32105296 181.77150382 -16.19108584 170.63469464 -16.11328125 161.421875 C-16.11525261 159.67843811 -16.11525261 159.67843811 -16.11726379 157.89978027 C-16.11568645 154.14126456 -16.09050324 150.38340488 -16.0625 146.625 C-16.05248761 144.01009147 -16.04255995 141.39518261 -16.03271484 138.78027344 C-15.91557516 117.76639109 -15.14607843 96.83956131 -13.75 75.875 C-13.65284333 74.38998386 -13.55583808 72.90495781 -13.45898438 71.41992188 C-13.10463157 66.01377593 -12.75015433 60.60779972 -12.35986328 55.20410156 C-11.94519616 49.4087739 -11.6503136 43.68529288 -11.75 37.875 C-12.00652344 38.94492188 -12.26304688 40.01484375 -12.52734375 41.1171875 C-26.51827823 97.71143169 -26.51827823 97.71143169 -43.75 109.875 C-48.91312763 112.87900153 -53.87672438 114.04768423 -59.75 112.875 C-70.99866037 108.06223424 -75.90701682 97.28090701 -80.29296875 86.5625 C-80.77378906 85.345625 -81.25460937 84.12875 -81.75 82.875 C-82.05357422 82.17205811 -82.35714844 81.46911621 -82.66992188 80.74487305 C-85.83464847 73.26735491 -87.85498906 65.53107803 -89.875 57.6875 C-90.39687879 55.68648006 -90.92056258 53.68593938 -91.44454956 51.68547058 C-91.91660588 49.87936393 -92.38446475 48.0721617 -92.85205078 46.26489258 C-93.77333468 42.7869081 -94.75086456 39.33128279 -95.75 35.875 C-95.62987448 39.78545274 -95.50555399 43.69574965 -95.37768555 47.60595703 C-95.31413115 49.57447721 -95.25370404 51.54309757 -95.19335938 53.51171875 C-95.00281459 59.28669154 -94.77474772 65.03398616 -94.25 70.7890625 C-93.57531999 78.34850242 -93.37924402 85.91634041 -93.1875 93.5 C-93.15672867 94.68873718 -93.15672867 94.68873718 -93.12533569 95.90148926 C-92.77079477 110.02807227 -92.61763592 124.15600627 -92.57376099 138.2868042 C-92.56630358 140.49747009 -92.55566585 142.70812774 -92.54171753 144.91876221 C-92.52375747 148.04487721 -92.5196897 151.17071421 -92.51953125 154.296875 C-92.51239105 155.21840363 -92.50525085 156.13993225 -92.49789429 157.08938599 C-92.53085586 166.64703864 -93.60141025 175.24652045 -99.75 182.875 C-104.42527529 187.21632705 -108.17719046 188.2372276 -114.40234375 188.15625 C-119.31105473 187.56818479 -122.57570381 185.08191553 -126 181.5625 C-131.30358165 173.41771389 -131.90377782 165.32312237 -131.91796875 155.90234375 C-131.92220352 155.03920563 -131.92643829 154.1760675 -131.93080139 153.28677368 C-131.94072895 150.46196679 -131.9407054 147.63732141 -131.9375 144.8125 C-131.93689575 143.83715302 -131.9362915 142.86180603 -131.93566895 141.85690308 C-131.89163036 115.49631647 -130.61898394 89.33735813 -127.8125 63.125 C-127.73318237 62.38025421 -127.65386475 61.63550842 -127.57214355 60.86819458 C-126.67995304 52.62943732 -125.59074524 44.43191141 -124.2734375 36.25 C-124.15883682 35.51879944 -124.04423615 34.78759888 -123.92616272 34.03424072 C-122.24167043 23.95644375 -118.90285691 13.64139264 -111.25 6.5625 C-106.53067935 3.37695856 -101.30135053 3.24187077 -95.75 3.875 C-84.66329898 7.14068867 -78.04694733 17.48522028 -72.74121094 27.04589844 C-66.19839071 39.11949676 -61.47216408 51.74422703 -56.98681641 64.69360352 C-56.57995605 65.86721436 -56.1730957 67.0408252 -55.75390625 68.25 C-55.39111572 69.30960938 -55.0283252 70.36921875 -54.65454102 71.4609375 C-53.97111395 73.79190108 -53.97111395 73.79190108 -52.75 74.875 C-52.49943848 74.08665771 -52.24887695 73.29831543 -51.99072266 72.48608398 C-33.05474501 13.30363958 -33.05474501 13.30363958 -14.75 -0.125 C-10.16867248 -2.41566376 -4.71947978 -1.41584394 0 0 Z " fill="#010101" transform="translate(1236.75,1198.125)"/>
<path d="M0 0 C17.64626338 15.01922568 24.5078233 37.78494372 28.22265625 59.8984375 C28.3609082 60.66800781 28.49916016 61.43757813 28.64160156 62.23046875 C31.16503252 76.69889905 31.49373379 91.00176426 31.47265625 105.6484375 C31.47149307 107.01665146 31.47149307 107.01665146 31.4703064 108.4125061 C31.40109009 136.51717164 31.40109009 136.51717164 27.91015625 144.4609375 C27.50152344 145.43160156 27.09289063 146.40226562 26.671875 147.40234375 C24.49441633 151.15273752 22.29023653 152.54257741 18.22265625 153.8984375 C13.77089424 154.29079619 9.61706523 154.35313608 5.34765625 152.9609375 C-0.29752252 147.4817934 -1.5887409 139.38976335 -2.77734375 131.8984375 C-3.36128906 132.75115234 -3.36128906 132.75115234 -3.95703125 133.62109375 C-10.66241356 142.87575736 -18.9267886 148.44671451 -29.77734375 151.8984375 C-30.68355469 152.1975 -31.58976562 152.4965625 -32.5234375 152.8046875 C-49.13878999 157.47167858 -71.30654376 157.05437819 -86.77734375 148.8984375 C-97.76919386 141.85190921 -104.50020133 133.15842468 -108.77734375 120.8984375 C-109.21046875 119.7846875 -109.64359375 118.6709375 -110.08984375 117.5234375 C-112.45691042 105.0425405 -111.01884793 90.6452495 -103.77734375 79.8984375 C-94.49774671 67.9488558 -82.72853685 60.3139656 -67.71484375 57.5859375 C-46.52988893 54.94099716 -25.73608261 57.57381279 -7.77734375 69.8984375 C-9.58877899 55.10860154 -11.69722263 41.86818745 -23.9921875 32.11328125 C-33.11256463 25.90663511 -44.9761291 25.81191735 -55.58203125 27.2890625 C-64.97412724 29.36436983 -73.83732446 33.38771139 -82.67773438 37.09814453 C-88.49865577 39.31686317 -94.64886571 40.01078525 -100.58984375 37.8984375 C-104.87249056 33.9828747 -106.97488777 29.24954483 -107.33984375 23.4609375 C-106.95241584 15.95775025 -102.39156559 9.65652777 -97.0390625 4.65234375 C-70.00637556 -16.31082799 -28.14930444 -21.30003627 0 0 Z " fill="#010101" transform="translate(1397.77734375,1239.1015625)"/>
<path d="M0 0 C7.83484824 7.12258931 14.19540712 16.56154353 15.22119141 27.31982422 C16.01900732 44.70542123 13.58807987 59.8229463 1.5 73.125 C-13.27590849 87.08159425 -33.06973659 91.40045266 -52.75 91.375 C-53.98194092 91.37411377 -55.21388184 91.37322754 -56.4831543 91.37231445 C-68.51965155 91.21587255 -78.02169633 88.8073124 -89 84 C-85.4365732 98.48938928 -85.4365732 98.48938928 -75.265625 108.66796875 C-57.78421385 118.00765669 -35.13478635 117.65055854 -16.40673828 112.14160156 C-12.87405076 111.02733206 -9.38725355 109.78741302 -5.89453125 108.5546875 C10.50566651 102.77888646 10.50566651 102.77888646 18.9375 106.1875 C22.32286056 109.16251382 25.71264923 112.46566043 26.23828125 117.1015625 C26.45899677 124.60589012 25.19498988 129.50568316 20.08203125 135.09765625 C14.92506248 139.98080367 9.53904756 143.29082679 3 146 C2.16597656 146.35835937 1.33195312 146.71671875 0.47265625 147.0859375 C-25.46762746 156.98567275 -59.90218692 156.39024052 -85.7109375 146.51171875 C-101.86430744 139.08730762 -111.46974113 127.62137494 -117.8984375 111.30078125 C-126.13684828 86.61476313 -123.6559619 55.92338641 -112.25 32.6875 C-108.89664755 26.14133626 -104.97805776 20.44044653 -100 15 C-99.40960937 14.31808594 -98.81921875 13.63617187 -98.2109375 12.93359375 C-75.3630286 -11.90743061 -28.00604536 -20.22908573 0 0 Z " fill="#010101" transform="translate(1706,1240)"/>
<path d="M0 0 C1.13695312 -0.01160156 2.27390625 -0.02320313 3.4453125 -0.03515625 C10.88014714 -0.00957769 17.32426425 1.0490717 24.375 3.375 C25.26243896 3.654646 26.14987793 3.93429199 27.06420898 4.22241211 C36.33951986 7.261386 44.81973701 14.69913652 49.375 23.375 C55.11076076 36.6999136 56.94601156 51.12171057 51.75 64.875 C49.39390037 70.72226477 46.66748268 75.74585202 42.375 80.375 C41.8490625 81.0246875 41.323125 81.674375 40.78125 82.34375 C30.64650149 93.90091935 12.34589479 100.25540297 -2.625 101.375 C-19.47549859 102.29355954 -34.08179913 101.2852893 -49.625 94.375 C-48.28336843 103.78644534 -45.99351098 112.2384743 -38.1875 118.25 C-22.20904444 128.04548797 -0.3242983 127.86513687 17.65234375 124.23925781 C24.57123728 122.57593456 31.09297795 119.95495973 37.68823242 117.328125 C43.64565469 115.05891517 49.07958947 114.2223192 55.375 115.375 C59.99204385 117.56202077 62.10587087 119.86879159 64.375 124.375 C65.42345335 130.649465 65.35725912 136.71480224 62 142.25 C51.38810886 155.68681587 33.46146117 159.7319526 17.375 162.375 C16.45428711 162.54628418 15.53357422 162.71756836 14.58496094 162.89404297 C-10.42989341 166.64208549 -38.74123244 163.60402471 -60.0234375 149.375 C-73.55748649 138.97044582 -80.38103806 122.97870402 -82.625 106.375 C-84.83217417 76.51151699 -81.33377278 49.36791823 -61.73828125 25.75 C-45.98665801 8.04762121 -23.3536143 -0.23993439 0 0 Z " fill="#010101" transform="translate(849.625,1229.625)"/>
<path d="M0 0 C4.13102578 3.82119884 7.12479062 6.98385676 7.7734375 12.73828125 C8.25436694 26.40777579 3.0064739 36.9308515 -5.5 47.3125 C-5.94730469 47.92222656 -6.39460938 48.53195312 -6.85546875 49.16015625 C-17.74032277 63.32721241 -36.03859992 72.21487639 -51.5 80.3125 C-51.5 80.9725 -51.5 81.6325 -51.5 82.3125 C-49.27498072 83.75025153 -47.05333162 85.07375639 -44.75 86.375 C-25.23596935 97.76279779 -4.52328171 113.81605078 2.5 136.3125 C3.5476407 143.02394826 3.11872589 148.84063293 -0.35546875 154.7578125 C-2.6707926 157.90285992 -4.84569513 159.09439838 -8.5 160.3125 C-18.34393483 161.36132106 -24.80703547 159.37890323 -32.76953125 153.69140625 C-49.5116666 140.05726801 -59.29139292 117.11335742 -66.5 97.3125 C-68.77553171 100.16298959 -70.39956163 102.96527361 -71.91796875 106.27734375 C-72.36358154 107.23616455 -72.80919434 108.19498535 -73.26831055 109.18286133 C-73.73664307 110.19501709 -74.20497559 111.20717285 -74.6875 112.25 C-80.68484525 124.97395026 -87.17417928 136.67415636 -96.5 147.3125 C-97.23734375 148.1684375 -97.9746875 149.024375 -98.734375 149.90625 C-105.60941628 157.36544511 -115.51552927 164.40957116 -125.91796875 165.5859375 C-131.83471158 165.80291255 -135.96812405 165.37967537 -140.84375 161.8828125 C-143.53998288 159.3264785 -144.91734608 156.66772632 -146.5 153.3125 C-146.83 152.6525 -147.16 151.9925 -147.5 151.3125 C-148.99691198 140.57750265 -144.53018118 131.81298646 -138.4375 123.25 C-127.6699932 109.61709056 -113.85364229 99.98901785 -98.625 91.875 C-97.82827881 91.44952881 -97.03155762 91.02405762 -96.21069336 90.58569336 C-91.69998252 88.24731437 -87.43828274 86.51744099 -82.5 85.3125 C-82.5 84.6525 -82.5 83.9925 -82.5 83.3125 C-83.57979126 83.13944336 -83.57979126 83.13944336 -84.68139648 82.96289062 C-89.68551888 81.80819318 -94.03867286 79.18691239 -98.5625 76.8125 C-99.59584473 76.27077148 -100.62918945 75.72904297 -101.69384766 75.17089844 C-109.23303307 71.14413956 -115.97933196 66.86714315 -122.5 61.3125 C-123.29019531 60.68214844 -124.08039062 60.05179688 -124.89453125 59.40234375 C-135.98389836 50.20213628 -146.00569076 36.56987445 -147.7890625 21.94140625 C-148.10815542 16.42445752 -147.34701112 12.60692427 -144.1328125 8.0703125 C-140.34302773 3.99040066 -135.18393058 0.77204962 -129.58984375 0.07421875 C-119.52252872 -0.27293004 -112.06139815 4.05047255 -104.5 10.3125 C-103.70851563 10.90160156 -102.91703125 11.49070312 -102.1015625 12.09765625 C-99.05264355 14.69335752 -96.62467875 17.5967452 -94.1875 20.75 C-93.70531006 21.37269775 -93.22312012 21.99539551 -92.72631836 22.63696289 C-85.35967807 32.2962633 -79.65926006 42.72057106 -74 53.4375 C-73.45867432 54.45835693 -72.91734863 55.47921387 -72.35961914 56.53100586 C-71.85938232 57.49272705 -71.35914551 58.45444824 -70.84375 59.4453125 C-70.16602539 60.74299561 -70.16602539 60.74299561 -69.47460938 62.06689453 C-68.5 64.3125 -68.5 64.3125 -68.5 67.3125 C-67.84 67.3125 -67.18 67.3125 -66.5 67.3125 C-66.37109375 66.58071533 -66.2421875 65.84893066 -66.109375 65.0949707 C-61.23697573 42.84708027 -45.48481381 16.13791495 -26.5 3.3125 C-18.25631065 -1.72136203 -9.10371706 -4.38929215 0 0 Z " fill="#010101" transform="translate(1074.5,1227.6875)"/>
<path d="M0 0 C12.66781147 11.35905122 17.5498373 28.97100185 18.94140625 45.359375 C19.07946133 48.54242455 19.1050946 51.72046943 19.109375 54.90625 C19.1127034 55.79814026 19.1160318 56.69003052 19.11946106 57.60894775 C19.12449586 59.49140921 19.12687046 61.37387948 19.12670898 63.25634766 C19.12886852 66.06038226 19.14698643 68.86400492 19.16601562 71.66796875 C19.21700571 87.79600056 18.4832726 104.09771281 15.12890625 119.921875 C14.95858887 120.74067139 14.78827148 121.55946777 14.61279297 122.40307617 C12.52118521 131.93391712 9.67887525 141.85761972 1.94140625 148.359375 C-3.12449279 151.32244802 -8.2751368 152.62418746 -14.05859375 151.359375 C-18.72306821 148.70407645 -21.5916255 145.55230487 -23.05859375 140.359375 C-23.4139337 136.87816012 -23.43808626 133.41929619 -23.43359375 129.921875 C-23.43488281 128.85001953 -23.43617188 127.77816406 -23.4375 126.67382812 C-23.31237448 116.48747356 -22.21971333 106.47002013 -21.05859375 96.359375 C-19.7824306 85.23377256 -18.66987643 74.26078818 -18.68359375 63.046875 C-18.68230469 62.07685547 -18.68101562 61.10683594 -18.6796875 60.10742188 C-18.82800341 50.6623951 -20.2904127 38.86548884 -26.69921875 31.46484375 C-32.34817615 26.41762312 -37.6152968 24.80983959 -45.15234375 24.9921875 C-53.34767237 26.0276188 -59.20147902 30.6004809 -64.3125 36.86328125 C-76.39390646 54.13401666 -75.65284611 74.86517092 -75.68359375 94.984375 C-75.70006416 98.79872833 -75.72234954 102.61284521 -75.75521851 106.42709351 C-75.77448998 108.78235809 -75.78422358 111.13773001 -75.78213501 113.49307251 C-75.86180187 125.95419115 -76.14430432 139.41008492 -84.55859375 149.296875 C-89.43784671 153.32225869 -93.12622245 153.8048383 -99.3671875 153.671875 C-104.45178535 153.08150079 -106.99052961 150.58001973 -110.24609375 146.859375 C-116.42743076 134.92300009 -116.2971502 121.10272091 -116.30859375 107.984375 C-116.30960083 107.18225586 -116.31060791 106.38013672 -116.31164551 105.55371094 C-116.23472166 13.49848896 -116.23472166 13.49848896 -99.05859375 -5.640625 C-96.18835238 -8.2223999 -93.66442923 -9.53301747 -89.78515625 -9.79296875 C-86.06572617 -9.55200899 -83.4731152 -8.8659084 -80.18359375 -7.078125 C-73.72265875 0.3329475 -74.38604972 10.05510878 -74.05859375 19.359375 C-73.60484375 18.26625 -73.15109375 17.173125 -72.68359375 16.046875 C-66.77914014 4.42312487 -56.014004 -4.34932038 -43.859375 -8.81640625 C-27.38768152 -13.6637247 -13.1118304 -10.44965611 0 0 Z " fill="#010101" transform="translate(553.05859375,1236.640625)"/>
<path d="M0 0 C14.43875926 12.23982895 19.92070268 30.73942016 22.1875 48.875 C22.40346029 53.81014635 22.38277117 58.74812702 22.375 63.6875 C22.37439575 64.39274811 22.3737915 65.09799622 22.37316895 65.82461548 C22.22380557 130.43247061 22.22380557 130.43247061 8.1875 146.875 C3.51360738 151.4941632 0.44814293 153.63347089 -6.1875 154.125 C-10.95937144 153.79590542 -14.16093872 152.52656128 -17.5625 149.125 C-25.50369795 134.8308437 -19.88914948 113.23292469 -18.15429688 97.93212891 C-16.92977945 86.97969523 -16.67389506 76.07830919 -16.5625 65.0625 C-16.54098877 63.82121338 -16.51947754 62.57992676 -16.49731445 61.30102539 C-16.46061779 50.99757228 -17.82520283 40.94299914 -24.8125 32.875 C-27.08856937 31.17900879 -29.2195902 30.09807066 -31.8125 28.875 C-32.4725 28.545 -33.1325 28.215 -33.8125 27.875 C-42.36085033 27.03470847 -49.91244741 28.37790918 -56.875 33.5625 C-68.26732501 44.33963946 -72.31780356 62.47639845 -72.91825867 77.52563477 C-72.97356815 80.57969275 -73.00255228 83.63301434 -73.0234375 86.6875 C-73.05152339 89.00391311 -73.08018795 91.32031926 -73.109375 93.63671875 C-73.1504128 97.24560212 -73.18734832 100.85435807 -73.21386719 104.46337891 C-73.51932366 142.81923274 -73.51932366 142.81923274 -81.8125 151.875 C-85.51816445 155.49028239 -88.6560193 156.22706795 -93.6875 156.5625 C-99.24304013 156.34882538 -102.32344863 155.04280951 -106.19140625 151.0703125 C-112.54768926 142.46252684 -112.96630331 132.42431806 -112.98046875 122.10546875 C-112.98682091 120.69372627 -112.98682091 120.69372627 -112.99330139 119.25346375 C-113.0032049 116.18976398 -113.0032145 113.12621301 -113 110.0625 C-112.99939575 109.01233704 -112.9987915 107.96217407 -112.99816895 106.88018799 C-112.85478662 14.9249039 -112.85478662 14.9249039 -96.1796875 -2.8671875 C-91.33528182 -6.54487768 -88.99852816 -7.64050235 -82.8125 -7.125 C-78.87082734 -5.00256087 -76.21415167 -2.88177356 -73.8125 0.875 C-73.1171875 3.390625 -73.1171875 3.390625 -72.6875 6.125 C-72.5328125 7.08535156 -72.378125 8.04570313 -72.21875 9.03515625 C-71.70234584 12.64501998 -71.22271647 16.25142118 -70.8125 19.875 C-70.14154297 18.87919922 -70.14154297 18.87919922 -69.45703125 17.86328125 C-66.21288791 13.12503351 -63.10255986 8.73605387 -58.8125 4.875 C-58.3484375 4.40707031 -57.884375 3.93914062 -57.40625 3.45703125 C-41.6515513 -11.56399275 -17.38460541 -12.29064948 0 0 Z " fill="#010101" transform="translate(717.8125,1234.125)"/>
<path d="M0 0 C3.82363969 1.32240503 6.44364011 3.13816213 8.671875 6.58984375 C10.33261329 10.85403355 10.49254542 14.40313317 10.4375 18.9375 C10.43266602 20.17753784 10.43266602 20.17753784 10.42773438 21.44262695 C10.25070078 29.38700954 8.51691066 36.48297666 6 44 C6.62261719 43.7834375 7.24523438 43.566875 7.88671875 43.34375 C20.14194012 39.65180046 36.05464295 38.39707827 47.9609375 43.7265625 C51.63902338 46.02360464 54.2460261 48.64015962 55.6015625 52.8828125 C56.57988185 58.08133295 56.5561203 63.19260901 55 68.25 C50.7227305 74.13124556 45.03726697 77.71334775 38.01953125 79.53515625 C26.68938009 81.27938392 15.2048122 79.98880977 4 78 C4.36351562 79.71316406 4.36351562 79.71316406 4.734375 81.4609375 C24.02610609 174.05152799 24.02610609 174.05152799 8.5078125 199.44140625 C5.85854426 202.83878391 3.22245503 205.13631602 -1 206 C-6.21214953 206.3883224 -11.38761728 206.76742963 -16 204 C-21.21037787 199.40990521 -24.01849115 194.9224794 -25.625 188.1875 C-25.98464844 186.72376953 -25.98464844 186.72376953 -26.3515625 185.23046875 C-27.66290174 178.69747147 -28.16281965 172.31526964 -28.203125 165.671875 C-28.21004868 164.89338196 -28.21697235 164.11488892 -28.22410583 163.31280518 C-28.24137608 160.79181855 -28.24770304 158.27104315 -28.25 155.75 C-28.25133942 154.88407227 -28.25267883 154.01814453 -28.25405884 153.12597656 C-28.24886021 137.56308846 -27.09220966 122.43034173 -25 107 C-24.72021709 104.78285852 -24.44286443 102.56540898 -24.16796875 100.34765625 C-22.13091657 84.11046261 -22.13091657 84.11046261 -21 79 C-22.485 79.4640625 -22.485 79.4640625 -24 79.9375 C-31.41271174 82.25397242 -39.30738526 82.23389699 -47 82.3125 C-48.41925781 82.35600586 -48.41925781 82.35600586 -49.8671875 82.40039062 C-57.80543525 82.47185684 -62.95767141 80.65394622 -68.9375 75.4375 C-72.79667602 70.87665561 -72.39977514 66.03978541 -72.3359375 60.30078125 C-71.84660315 55.49278681 -70.38547517 52.42597129 -67 49 C-61.64396249 44.84229773 -57.09179414 42.87466999 -50.265625 42.8671875 C-49.13382813 42.86589844 -48.00203125 42.86460938 -46.8359375 42.86328125 C-45.65257812 42.86714844 -44.46921875 42.87101562 -43.25 42.875 C-42.08210938 42.87113281 -40.91421875 42.86726563 -39.7109375 42.86328125 C-34.03846717 42.86971262 -28.58426201 42.97132016 -23 44 C-23.05220703 42.40285156 -23.05220703 42.40285156 -23.10546875 40.7734375 C-23.38675492 28.44682061 -23.47385211 14.86545245 -15 5 C-10.16063153 0.61080534 -6.56413475 -0.84125193 0 0 Z " fill="#020101" transform="translate(1515,1187)"/>
<path d="M0 0 C6.93 0 13.86 0 21 0 C21 3.3 21 6.6 21 10 C22.01578125 10.23074219 23.0315625 10.46148438 24.078125 10.69921875 C36.52588563 13.61113543 47.57994451 17.34283801 58 25 C57.36789019 28.43047704 56.04224303 30.69658283 54.05859375 33.546875 C53.18364258 34.81337891 53.18364258 34.81337891 52.29101562 36.10546875 C51.67935547 36.97816406 51.06769531 37.85085938 50.4375 38.75 C49.51420898 40.08224609 49.51420898 40.08224609 48.57226562 41.44140625 C47.05343811 43.6313436 45.52921504 45.81730949 44 48 C40.96524981 46.81609951 38.0197355 45.56805555 35.1171875 44.08984375 C34.42496094 43.73986328 33.73273438 43.38988281 33.01953125 43.02929688 C32.31183594 42.66900391 31.60414063 42.30871094 30.875 41.9375 C29.45668585 41.21556532 28.0374495 40.49543884 26.6171875 39.77734375 C25.99440918 39.46015381 25.37163086 39.14296387 24.72998047 38.81616211 C22.8257833 37.87593757 22.8257833 37.87593757 20 37 C20.33 45.91 20.66 54.82 21 64 C23.949375 65.03125 26.89875 66.0625 29.9375 67.125 C39.42820092 70.55601247 47.15625926 74.37411746 54 82 C54.70125 82.7425 55.4025 83.485 56.125 84.25 C62.2659795 93.25676993 62.22245896 104.43094158 60.53125 114.90234375 C57.7722294 125.29793924 52.17888368 133.39144216 43 139 C35.74579355 142.9731837 29.30870614 145.71834894 21 146 C21 150.62 21 155.24 21 160 C14.07 160 7.14 160 0 160 C0 155.38 0 150.76 0 146 C-1.16015625 145.88914062 -2.3203125 145.77828125 -3.515625 145.6640625 C-7.85081157 145.11692154 -11.68584119 143.945782 -15.75 142.375 C-16.44101807 142.10993652 -17.13203613 141.84487305 -17.84399414 141.57177734 C-28.28815571 137.43272775 -36.94226767 131.83390643 -45 124 C-43.23245925 119.81647159 -40.379141 116.51070247 -37.5625 113 C-36.58427854 111.77111733 -35.60640451 110.541958 -34.62890625 109.3125 C-34.17273926 108.74015625 -33.71657227 108.1678125 -33.24658203 107.578125 C-31.79728321 105.74336833 -30.38774937 103.88169406 -29 102 C-24.44792437 103.99083406 -20.64260364 107.15680364 -16.74804688 110.19140625 C-11.17981269 114.32568046 -7.10570979 115.41610553 0 118 C0 108.76 0 99.52 0 90 C-3.63 89.01 -7.26 88.02 -11 87 C-21.95004289 82.61998284 -32.26975515 77.1834866 -37.390625 65.94921875 C-41.3313631 54.3628937 -41.35382073 44.07456998 -36 33 C-31.11462059 23.85290663 -23.1085082 15.222511 -13 12 C-8.68570421 11.13515269 -4.3699575 10.50627556 0 10 C0 6.7 0 3.4 0 0 Z " fill="#DBC5B9" transform="translate(987,832)"/>
<path d="M0 0 C12.99236392 7.6476791 17.78799255 23.42357221 22 37 C22.26941406 37.8559375 22.53882813 38.711875 22.81640625 39.59375 C24.84627969 47.20222668 25.66298902 56.42765322 22.3125 63.625 C21.549375 64.40875 20.78625 65.1925 20 66 C18.948125 67.0828125 18.948125 67.0828125 17.875 68.1875 C10.75099215 72.67872234 2.82455507 73.53270252 -5.4375 73.4375 C-6.35402344 73.43065186 -7.27054687 73.42380371 -8.21484375 73.41674805 C-16.36237169 73.22362039 -23.92013933 72.1570643 -30.125 66.4375 C-34.30076176 61.00900972 -33.45773829 54.53437987 -33 48 C-30.90897061 32.5477118 -24.94361714 15.37810318 -14 4 C-13.21625 3.154375 -12.4325 2.30875 -11.625 1.4375 C-7.63659518 -0.74662645 -4.41961448 -1.15169107 0 0 Z " fill="#DAC4B8" transform="translate(348,1230)"/>
<path d="M0 0 C1.45587524 0.00966797 1.45587524 0.00966797 2.94116211 0.01953125 C9.78968185 0.19511951 15.80102448 0.67698078 21.0625 5.5 C25.25178251 10.578517 27.43379172 15.56444236 27.34765625 22.24609375 C26.58739964 28.25524534 23.36207538 34.31357134 19.0625 38.5 C6.11078952 47.65753851 -8.35207371 49.92594799 -23.9375 48.5 C-29.92826628 47.16178485 -35.65811493 45.05547443 -39.9375 40.5 C-42.53122604 36.17712326 -42.68176248 31.39197528 -41.9375 26.5 C-38.44261187 16.28057265 -31.77938268 10.3028987 -22.7578125 4.859375 C-15.18058995 1.20719571 -8.40054797 -0.0579798 0 0 Z " fill="#DAC4B8" transform="translate(844.9375,1258.5)"/>
<path d="M0 0 C0.96421875 -0.02900391 1.9284375 -0.05800781 2.921875 -0.08789062 C10.34318086 -0.15343205 15.67990363 1.16241496 21.30859375 6.12890625 C21.99115234 6.99322266 21.99115234 6.99322266 22.6875 7.875 C23.16058594 8.45378906 23.63367187 9.03257813 24.12109375 9.62890625 C27.39850674 14.51667442 26.73663803 20.69469335 26.25 26.3125 C24.460615 33.38540693 19.12793567 38.32572624 13.25 42.3125 C6.57200604 45.61067794 -0.26853194 48.10734091 -7.75 48.3125 C-8.71292969 48.36277344 -9.67585938 48.41304687 -10.66796875 48.46484375 C-20.00416674 48.74370271 -30.47179437 48.48870135 -38 42.3125 C-41.4479191 39.03526997 -41.95296192 35.83252807 -42.125 31.1875 C-42.05678007 23.81974808 -39.14388553 19.09458319 -34.4375 13.625 C-23.55113036 4.25765868 -14.35017592 0.14161358 0 0 Z " fill="#DBC5B9" transform="translate(1662.75,1258.6875)"/>
<path d="M0 0 C3.48397087 3.33249387 4.86478494 5.0685185 5.5625 9.875 C5.14161469 15.38859757 3.27586099 19.78663405 -0.70703125 23.66015625 C-13.07741388 32.9083773 -29.07287352 34.66612573 -44 33 C-51.36724186 31.47636117 -56.96571553 27.52512721 -62 22 C-64.65758868 17.79215126 -64.66610959 12.84594725 -64 8 C-62.19203061 2.84317823 -58.6829651 -1.1881534 -54 -4 C-37.51430844 -11.10335005 -14.71853792 -10.70439121 0 0 Z " fill="#DAC4B8" transform="translate(1387,1331)"/>
<path d="M0 0 C7.51304348 2.50434783 7.51304348 2.50434783 10 7 C10.68327924 11.78295468 10.57723374 15.81756878 8 20 C5.06026776 22.11057699 3.65351863 23 0 23 C0 15.41 0 7.82 0 0 Z " fill="#37271E" transform="translate(1007,928)"/>
<path d="M0 0 C0 7.26 0 14.52 0 22 C-4.50950852 19.74524574 -5.71063381 18.41520623 -8 14 C-8.82600999 9.77908896 -8.48285814 6.75647776 -6.125 3.0625 C-2.96969697 0 -2.96969697 0 0 0 Z " fill="#36261D" transform="translate(986,869)"/>
<path d="M0 0 C0.33 0 0.66 0 1 0 C1 3.3 1 6.6 1 10 C0.01 10 -0.98 10 -2 10 C-1.125 2.25 -1.125 2.25 0 0 Z " fill="#BBA99E" transform="translate(1225,1234)"/>
</svg>
